<svg xmlns="http://www.w3.org/2000/svg" xmlns:xlink="http://www.w3.org/1999/xlink" id="body_15" preserveAspectRatio="xMinYMin meet" viewBox="0 0 1280 720"><defs><clipPath id="1"><path d="M0 540L0 0L0 0L960 0L960 0L960 540L960 540L0 540z" /></clipPath><clipPath id="2"><path d="M0 540L959.76 540L959.76 540L959.76 0L959.76 0L0 0z" /></clipPath><clipPath id="3"><path d="M0 540L960 540L960 540L960 0L960 0L0 0z" /></clipPath><clipPath id="4"><path d="M0 0L959.9999 0L959.9999 0L959.9999 539.9999L959.9999 539.9999L0 539.9999z" /></clipPath><clipPath id="5"><path d="M0 540L960 540L960 540L960 0L960 0L0 0z" /></clipPath></defs><g transform="matrix(1.333333 0 0 1.333333 0 0)"><g><g clip-path="url(#1)"><g clip-path="url(#2)"><path transform="matrix(1 0 0 -1 0 540)" d="M0 540L959.76 540L959.76 540L959.76 1.206994E-05L959.76 1.206994E-05L0 1.206994E-05z" stroke="none" fill="#FFFFFE" fill-rule="winding" /></g><g clip-path="url(#3)"><path transform="matrix(1 0 0 -1 0 540)" d="M0 540L960 540L960 540L960 1.40816E-05L960 1.40816E-05L0 1.40816E-05z" stroke="none" fill="#FFFFFE" fill-rule="winding" /></g><g clip-path="url(#4)"><g clip-path="url(#5)"><g transform="matrix(0.5 0 0 0.5 0 -6.103516E-05)"><g transform="matrix(1 0 0 1 0 0)"><image x="0" y="0" xlink:href="img_29.png" width="1920" height="1080" /></g></g></g></g></g></g></g></svg>